# xmcd
#
# Track frame offsets:
#	150
#	10593
#	17872
#	26388
#	35080
#	43191
#	54122
#	63899
#	76050
#	86037
#	95124
#	109676
#	118951
#	129433
#	136713
#	145111
#
# Disc length: 2049 seconds
#
# Revision: 4
# Processed by: cddbd v1.4PL0 Copyright (c) Steve Scherf et al.
# Submitted via: audiograbber 1.80.04
#
DISCID=ca07ff10
DTITLE=Casey Sisters and the Salt Flat Stompers - Crazy Spree
DYEAR=2002
DGENRE=Rock and Roll
TTITLE0=Crazy Spree
TTITLE1=That's What I Need
TTITLE2=Too Late To Rock
TTITLE3=By And By
TTITLE4=My Love Rolls On
TTITLE5=Four Little Sparrows
TTITLE6=I Can't Find The Doorknob
TTITLE7=Dancing Teardrops
TTITLE8=Baby Me
TTITLE9=Your New Baby
TTITLE10=Still, I'm Thinking Of You
TTITLE11=Don't Sweep Me Under The Rug
TTITLE12=Twelve O'Clock
TTITLE13=Two Nights Two Days
TTITLE14=Grizzly Bear Stomp
TTITLE15=Number One Man
EXTD=
EXTT0=
EXTT1=
EXTT2=
EXTT3=
EXTT4=
EXTT5=
EXTT6=
EXTT7=
EXTT8=
EXTT9=
EXTT10=
EXTT11=
EXTT12=
EXTT13=
EXTT14=
EXTT15=
PLAYORDER=
